<svg xmlns="http://www.w3.org/2000/svg" xmlns:xlink="http://www.w3.org/1999/xlink" width="1366" zoomAndPan="magnify" viewBox="0 0 1024.5 576" height="768" preserveAspectRatio="xMidYMid meet" version="1.0"><defs><g/></defs><path stroke-linecap="butt" transform="matrix(0.749634, 0, 0, 0.749634, 28.703876, 144.731313)" fill="none" stroke-linejoin="miter" d="M 630.040736 24.781798 C 633.563288 24.781798 635.60074 27.454977 636.163515 32.801335 L 635.532999 32.801335 L 636.163515 34.911739 C 640.947099 34.911739 654.245253 33.437062 676.057977 30.482495 C 679.575318 31.748738 681.336594 33.926884 681.336594 37.022144 C 681.336594 41.529551 671.837168 44.411165 652.838316 45.677408 L 634.266756 48.209894 L 634.266756 57.500884 C 634.266756 64.113485 636.939935 90.92344 642.286293 137.920325 L 669.304683 137.920325 C 672.962717 137.920325 675.213815 139.962988 676.057977 144.043104 C 676.057977 148.404607 672.754282 150.587963 666.13647 150.587963 L 642.286293 150.587963 L 642.286293 151.432125 L 641.650567 195.125316 C 641.650567 205.541856 642.708374 213.139312 644.818779 217.922896 L 686.615211 215.176764 C 691.117407 215.74475 693.368505 217.714461 693.368505 221.091108 C 693.368505 225.593304 688.444228 227.844403 678.590463 227.844403 C 653.260397 229.251339 640.59797 230.590534 640.59797 231.856777 C 635.532999 231.856777 632.015658 224.113416 630.040736 208.637116 L 628.988139 192.59283 L 629.41022 144.678831 L 621.599118 57.500884 L 621.599118 50.956025 C 621.599118 33.504803 624.204556 24.781798 629.41022 24.781798 Z M 630.040736 24.781798 " stroke="#3f687c" stroke-width="16.211399" stroke-opacity="1" stroke-miterlimit="4"/><g fill="#bae3f7" fill-opacity="1"><g transform="translate(488.346719, 314.898257)"><g><path d="M 12.65625 -151.59375 C 15.289062 -151.59375 16.820312 -149.585938 17.25 -145.578125 L 16.765625 -145.578125 L 17.25 -144 C 20.832031 -144 30.800781 -145.101562 47.15625 -147.3125 C 49.789062 -146.363281 51.109375 -144.726562 51.109375 -142.40625 C 51.109375 -139.03125 43.988281 -136.867188 29.75 -135.921875 L 15.828125 -134.03125 L 15.828125 -127.0625 C 15.828125 -122.101562 17.832031 -102.007812 21.84375 -66.78125 L 42.09375 -66.78125 C 44.832031 -66.78125 46.519531 -65.25 47.15625 -62.1875 C 47.15625 -58.914062 44.675781 -57.28125 39.71875 -57.28125 L 21.84375 -57.28125 L 21.84375 -56.640625 L 21.359375 -23.890625 C 21.359375 -16.085938 22.148438 -10.390625 23.734375 -6.796875 L 55.0625 -8.859375 C 58.4375 -8.441406 60.125 -6.96875 60.125 -4.4375 C 60.125 -1.050781 56.429688 0.640625 49.046875 0.640625 C 30.066406 1.691406 20.578125 2.691406 20.578125 3.640625 C 16.773438 3.640625 14.132812 -2.160156 12.65625 -13.765625 L 11.875 -25.796875 L 12.1875 -61.71875 L 6.328125 -127.0625 L 6.328125 -131.96875 C 6.328125 -145.050781 8.28125 -151.59375 12.1875 -151.59375 Z M 12.65625 -151.59375 "/></g></g></g></svg>